<svg width="1677" height="1459" viewBox="0 0 1677 1459" fill="none" xmlns="http://www.w3.org/2000/svg">
<g filter="url(#filter0_d_14_607)">
<path d="M970.708 391.211C969.738 390.241 969.738 388.669 970.708 387.699C971.678 386.729 973.251 386.729 974.221 387.699C975.191 388.669 975.191 390.241 974.221 391.211C973.251 392.181 971.678 392.181 970.708 391.211Z" fill="white" fill-opacity="0.8" shape-rendering="crispEdges"/>
<path d="M237.752 705.168C236.782 704.199 236.782 702.626 237.752 701.656C238.722 700.686 240.294 700.686 241.264 701.656C242.234 702.626 242.234 704.199 241.264 705.168C240.294 706.138 238.722 706.138 237.752 705.168Z" fill="white" fill-opacity="0.8" shape-rendering="crispEdges"/>
<path d="M238.24 705.656C237 704.417 237 702.408 238.24 701.168L238.63 700.778C239.869 699.539 241.879 699.539 243.118 700.778C244.358 702.017 244.358 704.027 243.118 705.266L242.728 705.656C241.489 706.896 239.479 706.896 238.24 705.656Z" fill="white" fill-opacity="0.8" shape-rendering="crispEdges"/>
<path d="M1111.42 554.743C1110.34 553.656 1110.34 551.894 1111.42 550.808L1111.76 550.465C1112.85 549.379 1114.61 549.379 1115.7 550.465C1116.79 551.552 1116.79 553.314 1115.7 554.4L1115.36 554.743C1114.27 555.829 1112.51 555.829 1111.42 554.743Z" fill="white" fill-opacity="0.8" shape-rendering="crispEdges"/>
<path d="M1313.87 486.725C1313.06 485.917 1313.06 484.606 1313.87 483.798C1314.67 482.99 1315.99 482.99 1316.79 483.798C1317.6 484.606 1317.6 485.917 1316.79 486.725C1315.99 487.533 1314.67 487.533 1313.87 486.725Z" fill="white" fill-opacity="0.8" shape-rendering="crispEdges"/>
<path d="M736 356.918C734.895 355.813 734.895 354.022 736 352.917C737.105 351.813 738.896 351.813 740.001 352.917C741.105 354.022 741.105 355.813 740.001 356.918C738.896 358.022 737.105 358.022 736 356.918Z" fill="white" fill-opacity="0.8" shape-rendering="crispEdges"/>
<path d="M603.547 325.941C601.877 324.271 601.877 321.563 603.547 319.892C605.218 318.222 607.926 318.222 609.596 319.892C611.267 321.563 611.267 324.271 609.596 325.941C607.926 327.612 605.218 327.612 603.547 325.941Z" fill="white" fill-opacity="0.8" shape-rendering="crispEdges"/>
<path d="M327.394 403.822C324.955 401.383 324.955 397.429 327.394 394.99C329.833 392.551 333.788 392.551 336.227 394.99C338.667 397.429 338.667 401.383 336.227 403.822C333.788 406.261 329.833 406.261 327.394 403.822Z" fill="white" fill-opacity="0.8" shape-rendering="crispEdges"/>
<path d="M1019.69 459.31C1018.5 458.125 1018.5 456.203 1019.69 455.017C1020.87 453.832 1022.8 453.832 1023.98 455.017C1025.17 456.203 1025.17 458.125 1023.98 459.31C1022.8 460.495 1020.87 460.495 1019.69 459.31Z" fill="white" fill-opacity="0.8" shape-rendering="crispEdges"/>
<path d="M943.047 555.361C941.834 554.148 941.834 552.183 943.047 550.97L943.632 550.385C944.844 549.172 946.81 549.172 948.023 550.385C949.235 551.597 949.235 553.563 948.023 554.775L947.437 555.361C946.225 556.573 944.259 556.573 943.047 555.361Z" fill="white" fill-opacity="0.8" shape-rendering="crispEdges"/>
<path d="M418.649 658.338C417.464 657.153 417.464 655.231 418.649 654.046C419.835 652.86 421.757 652.86 422.942 654.046C424.128 655.231 424.128 657.153 422.942 658.338C421.757 659.524 419.835 659.524 418.649 658.338Z" fill="white" fill-opacity="0.8" shape-rendering="crispEdges"/>
<path d="M750.977 617.167C750.546 616.736 750.546 616.037 750.977 615.606C751.408 615.175 752.107 615.175 752.538 615.606C752.97 616.037 752.97 616.736 752.538 617.167C752.107 617.598 751.408 617.598 750.977 617.167Z" fill="white" fill-opacity="0.8" shape-rendering="crispEdges"/>
<path d="M646.479 588.971C644.808 587.301 644.808 584.592 646.479 582.922C648.149 581.252 650.858 581.252 652.528 582.922C654.199 584.592 654.199 587.301 652.528 588.971C650.858 590.641 648.149 590.641 646.479 588.971Z" fill="white" fill-opacity="0.8" shape-rendering="crispEdges"/>
<path d="M1122.33 324.673C1121.36 323.703 1121.36 322.131 1122.33 321.161C1123.3 320.191 1124.88 320.191 1125.85 321.161C1126.82 322.131 1126.82 323.703 1125.85 324.673C1124.88 325.643 1123.3 325.643 1122.33 324.673Z" fill="white" fill-opacity="0.8" shape-rendering="crispEdges"/>
<path d="M695.654 820C693.984 818.33 693.984 815.621 695.654 813.951C697.325 812.281 700.033 812.281 701.704 813.951C703.374 815.621 703.374 818.33 701.704 820C700.033 821.67 697.325 821.67 695.654 820Z" fill="white" fill-opacity="0.8" shape-rendering="crispEdges"/>
<path d="M615.987 1030.69C613.482 1028.18 613.482 1024.12 615.987 1021.61C618.493 1019.11 622.556 1019.11 625.062 1021.61C627.567 1024.12 627.567 1028.18 625.062 1030.69C622.556 1033.19 618.493 1033.19 615.987 1030.69Z" fill="white" fill-opacity="0.8" shape-rendering="crispEdges"/>
<path d="M1192.56 780.017C1191.5 778.954 1191.5 777.231 1192.56 776.168C1193.62 775.105 1195.35 775.105 1196.41 776.168C1197.47 777.231 1197.47 778.954 1196.41 780.017C1195.35 781.08 1193.62 781.08 1192.56 780.017Z" fill="white" fill-opacity="0.8" shape-rendering="crispEdges"/>
<path d="M233.509 939.275C232.296 938.061 232.296 936.095 233.509 934.881C234.722 933.668 236.689 933.668 237.902 934.881C239.116 936.095 239.116 938.061 237.902 939.275C236.689 940.488 234.722 940.488 233.509 939.275Z" fill="white" fill-opacity="0.8" shape-rendering="crispEdges"/>
<path d="M156.28 1246.15C154.609 1244.48 154.609 1241.78 156.28 1240.11C157.95 1238.44 160.659 1238.44 162.329 1240.11C164 1241.78 164 1244.48 162.329 1246.15C160.659 1247.83 157.95 1247.83 156.28 1246.15Z" fill="white" fill-opacity="0.8" shape-rendering="crispEdges"/>
<path d="M1140.59 1051.2C1140.16 1050.77 1140.16 1050.08 1140.59 1049.66C1141.01 1049.23 1141.7 1049.23 1142.13 1049.66L1142.77 1050.3C1143.2 1050.73 1143.2 1051.42 1142.77 1051.84C1142.35 1052.27 1141.65 1052.27 1141.23 1051.84L1140.59 1051.2Z" fill="white" fill-opacity="0.8" shape-rendering="crispEdges"/>
<path d="M1251.42 836.39C1249.75 834.72 1249.75 832.012 1251.42 830.342C1253.09 828.671 1255.8 828.671 1257.47 830.342C1259.14 832.012 1259.14 834.72 1257.47 836.39C1255.8 838.061 1253.09 838.061 1251.42 836.39Z" fill="white" fill-opacity="0.8" shape-rendering="crispEdges"/>
<path d="M105.543 393.065C103.872 391.394 103.872 388.686 105.543 387.016C107.213 385.345 109.922 385.345 111.592 387.016C113.263 388.686 113.263 391.394 111.592 393.065C109.922 394.735 107.213 394.735 105.543 393.065Z" fill="white" fill-opacity="0.8" shape-rendering="crispEdges"/>
<path d="M370.498 1156.64C369.501 1155.64 369.501 1154.03 370.498 1153.03C371.495 1152.03 373.111 1152.03 374.108 1153.03C375.105 1154.03 375.105 1155.64 374.108 1156.64C373.111 1157.64 371.495 1157.64 370.498 1156.64Z" fill="white" fill-opacity="0.8" shape-rendering="crispEdges"/>
<path d="M838.987 967.808C838.017 966.838 838.017 965.265 838.987 964.295C839.957 963.326 841.529 963.326 842.499 964.295C843.469 965.265 843.469 966.838 842.499 967.808C841.529 968.778 839.957 968.778 838.987 967.808Z" fill="white" fill-opacity="0.8" shape-rendering="crispEdges"/>
<path d="M1301.61 1245.6C1300.24 1244.24 1300.24 1242.02 1301.61 1240.66C1302.97 1239.29 1305.19 1239.29 1306.55 1240.66L1307.66 1241.76C1309.02 1243.13 1309.02 1245.34 1307.66 1246.71C1306.29 1248.07 1304.08 1248.07 1302.71 1246.71L1301.61 1245.6Z" fill="white" fill-opacity="0.8" shape-rendering="crispEdges"/>
<path d="M517.001 489.75C515.816 488.564 515.816 486.642 517.001 485.457C518.187 484.271 520.109 484.271 521.294 485.457C522.48 486.642 522.48 488.564 521.294 489.75C520.109 490.935 518.187 490.935 517.001 489.75Z" fill="white" fill-opacity="0.8" shape-rendering="crispEdges"/>
<path d="M111.787 682.218C111.093 681.524 111.093 680.399 111.787 679.705C112.481 679.011 113.607 679.011 114.301 679.705C114.995 680.399 114.995 681.524 114.301 682.218C113.607 682.912 112.481 682.912 111.787 682.218Z" fill="white" fill-opacity="0.8" shape-rendering="crispEdges"/>
<path d="M905.921 316.087C905.543 315.71 905.543 315.099 905.921 314.722C906.298 314.344 906.909 314.344 907.287 314.722C907.664 315.099 907.664 315.71 907.287 316.087C906.909 316.465 906.298 316.465 905.921 316.087Z" fill="white" fill-opacity="0.8" shape-rendering="crispEdges"/>
<path d="M102.613 952.249C102.479 953.838 101.082 955.017 99.4923 954.883C97.903 954.749 96.7235 953.352 96.8577 951.763C96.9919 950.173 98.3891 948.994 99.9784 949.128C101.568 949.262 102.747 950.659 102.613 952.249Z" fill="white" fill-opacity="0.8" shape-rendering="crispEdges"/>
<path d="M931.323 1367.9C931.189 1369.49 929.792 1370.67 928.202 1370.54C926.613 1370.4 925.433 1369 925.568 1367.42C925.702 1365.83 927.099 1364.65 928.688 1364.78C930.278 1364.92 931.457 1366.31 931.323 1367.9Z" fill="white" fill-opacity="0.8" shape-rendering="crispEdges"/>
<path d="M931.391 1367.1C931.219 1369.13 929.434 1370.64 927.403 1370.47L926.763 1370.41C924.733 1370.24 923.225 1368.46 923.397 1366.43C923.569 1364.4 925.354 1362.89 927.385 1363.06L928.024 1363.12C930.055 1363.29 931.562 1365.07 931.391 1367.1Z" fill="white" fill-opacity="0.8" shape-rendering="crispEdges"/>
<path d="M142.372 704.586C142.222 706.366 140.657 707.688 138.876 707.537L138.315 707.49C136.535 707.34 135.213 705.774 135.364 703.994C135.514 702.213 137.079 700.892 138.86 701.042L139.421 701.09C141.201 701.24 142.523 702.806 142.372 704.586Z" fill="white" fill-opacity="0.8" shape-rendering="crispEdges"/>
<path d="M-69.9056 575.757C-70.0175 577.081 -71.1818 578.064 -72.5063 577.952C-73.8307 577.84 -74.8136 576.676 -74.7017 575.352C-74.5899 574.028 -73.4255 573.045 -72.1011 573.157C-70.7767 573.268 -69.7938 574.433 -69.9056 575.757Z" fill="white" fill-opacity="0.8" shape-rendering="crispEdges"/>
<path d="M248.184 1186.48C248.031 1188.29 246.44 1189.63 244.63 1189.48C242.82 1189.33 241.477 1187.73 241.63 1185.92C241.783 1184.11 243.374 1182.77 245.184 1182.92C246.994 1183.08 248.337 1184.67 248.184 1186.48Z" fill="white" fill-opacity="0.8" shape-rendering="crispEdges"/>
<path d="M320.007 1327.38C319.776 1330.12 317.37 1332.15 314.633 1331.92C311.896 1331.68 309.864 1329.28 310.095 1326.54C310.326 1323.8 312.733 1321.77 315.47 1322C318.207 1322.24 320.238 1324.64 320.007 1327.38Z" fill="white" fill-opacity="0.8" shape-rendering="crispEdges"/>
<path d="M596.334 1514.29C595.996 1518.29 592.483 1521.25 588.486 1520.91C584.49 1520.58 581.524 1517.06 581.861 1513.07C582.199 1509.07 585.712 1506.11 589.709 1506.44C593.705 1506.78 596.672 1510.29 596.334 1514.29Z" fill="white" fill-opacity="0.8" shape-rendering="crispEdges"/>
<path d="M126.382 857.658C126.218 859.601 124.511 861.042 122.568 860.878C120.626 860.714 119.184 859.006 119.348 857.064C119.512 855.122 121.22 853.68 123.162 853.844C125.105 854.008 126.547 855.716 126.382 857.658Z" fill="white" fill-opacity="0.8" shape-rendering="crispEdges"/>
<path d="M269.211 853.702C269.043 855.689 267.297 857.163 265.31 856.995L264.351 856.914C262.364 856.747 260.89 855 261.058 853.014C261.226 851.027 262.972 849.553 264.959 849.721L265.918 849.802C267.905 849.97 269.379 851.716 269.211 853.702Z" fill="white" fill-opacity="0.8" shape-rendering="crispEdges"/>
<path d="M754.032 1242.32C753.868 1244.27 752.16 1245.71 750.217 1245.54C748.275 1245.38 746.833 1243.67 746.997 1241.73C747.161 1239.79 748.869 1238.35 750.812 1238.51C752.754 1238.67 754.196 1240.38 754.032 1242.32Z" fill="white" fill-opacity="0.8" shape-rendering="crispEdges"/>
<path d="M468.188 977.973C468.129 978.68 467.508 979.204 466.801 979.144C466.095 979.085 465.571 978.464 465.63 977.757C465.69 977.051 466.311 976.527 467.017 976.587C467.724 976.646 468.248 977.267 468.188 977.973Z" fill="white" fill-opacity="0.8" shape-rendering="crispEdges"/>
<path d="M521.515 1091.96C521.284 1094.69 518.877 1096.72 516.14 1096.49C513.403 1096.26 511.372 1093.85 511.603 1091.12C511.834 1088.38 514.24 1086.35 516.977 1086.58C519.715 1086.81 521.746 1089.22 521.515 1091.96Z" fill="white" fill-opacity="0.8" shape-rendering="crispEdges"/>
<path d="M-70.2343 867.455C-70.3685 869.045 -71.7657 870.224 -73.355 870.09C-74.9443 869.956 -76.1238 868.558 -75.9896 866.969C-75.8553 865.38 -74.4581 864.201 -72.8689 864.335C-71.2796 864.469 -70.1 865.866 -70.2343 867.455Z" fill="white" fill-opacity="0.8" shape-rendering="crispEdges"/>
<path d="M689.905 874.986C689.674 877.723 687.268 879.754 684.53 879.523C681.793 879.292 679.762 876.886 679.993 874.149C680.224 871.412 682.631 869.381 685.368 869.612C688.105 869.843 690.136 872.249 689.905 874.986Z" fill="white" fill-opacity="0.8" shape-rendering="crispEdges"/>
<path d="M936.86 787.735C936.513 791.84 932.903 794.887 928.798 794.54C924.692 794.193 921.645 790.584 921.992 786.479C922.339 782.373 925.948 779.327 930.054 779.673C934.159 780.02 937.206 783.629 936.86 787.735Z" fill="white" fill-opacity="0.8" shape-rendering="crispEdges"/>
<path d="M281.678 463.54C281.531 465.282 280 466.574 278.258 466.427C276.516 466.28 275.223 464.749 275.37 463.007C275.517 461.266 277.049 459.973 278.791 460.12C280.532 460.267 281.825 461.798 281.678 463.54Z" fill="white" fill-opacity="0.8" shape-rendering="crispEdges"/>
<path d="M1142.51 1196.08C1142.35 1198.07 1140.6 1199.54 1138.61 1199.38C1136.62 1199.21 1135.15 1197.46 1135.32 1195.47C1135.48 1193.48 1137.23 1192.01 1139.22 1192.18C1141.21 1192.35 1142.68 1194.09 1142.51 1196.08Z" fill="white" fill-opacity="0.8" shape-rendering="crispEdges"/>
<path d="M1473.11 1034.51C1472.88 1037.25 1470.47 1039.28 1467.74 1039.05C1465 1038.82 1462.97 1036.41 1463.2 1033.68C1463.43 1030.94 1465.84 1028.91 1468.57 1029.14C1471.31 1029.37 1473.34 1031.78 1473.11 1034.51Z" fill="white" fill-opacity="0.8" shape-rendering="crispEdges"/>
<path d="M561.612 306.312C561.553 307.01 560.94 307.528 560.241 307.469C559.543 307.41 559.025 306.796 559.084 306.098L559.173 305.045C559.232 304.347 559.846 303.829 560.544 303.888C561.242 303.947 561.76 304.561 561.701 305.259L561.612 306.312Z" fill="white" fill-opacity="0.8" shape-rendering="crispEdges"/>
<path d="M287.618 368.966C287.386 371.703 284.98 373.734 282.243 373.503C279.506 373.272 277.474 370.866 277.706 368.129C277.937 365.392 280.343 363.361 283.08 363.592C285.817 363.823 287.849 366.229 287.618 368.966Z" fill="white" fill-opacity="0.8" shape-rendering="crispEdges"/>
<path d="M753.175 1719.44C752.943 1722.18 750.537 1724.21 747.8 1723.98C745.063 1723.75 743.031 1721.34 743.263 1718.61C743.494 1715.87 745.9 1713.84 748.637 1714.07C751.374 1714.3 753.406 1716.71 753.175 1719.44Z" fill="white" fill-opacity="0.8" shape-rendering="crispEdges"/>
<path d="M1232.9 911.349C1232.76 912.982 1231.33 914.195 1229.69 914.057C1228.06 913.919 1226.85 912.483 1226.99 910.849C1227.12 909.216 1228.56 908.004 1230.19 908.142C1231.83 908.28 1233.04 909.716 1232.9 911.349Z" fill="white" fill-opacity="0.8" shape-rendering="crispEdges"/>
<path d="M713.73 636.791C713.596 638.38 712.198 639.56 710.609 639.426C709.02 639.291 707.84 637.894 707.975 636.305C708.109 634.716 709.506 633.537 711.095 633.671C712.685 633.805 713.864 635.202 713.73 636.791Z" fill="white" fill-opacity="0.8" shape-rendering="crispEdges"/>
<path d="M613.571 17.455C613.382 19.6924 611.415 21.353 609.178 21.164C606.94 20.975 605.279 19.008 605.468 16.7706L605.621 14.9619C605.81 12.7245 607.777 11.0639 610.015 11.2529C612.252 11.4419 613.913 13.4089 613.724 15.6463L613.571 17.455Z" fill="white" fill-opacity="0.8" shape-rendering="crispEdges"/>
<path d="M530.468 1281.4C530.304 1283.34 528.597 1284.78 526.654 1284.62C524.712 1284.46 523.27 1282.75 523.434 1280.81C523.598 1278.86 525.306 1277.42 527.248 1277.59C529.191 1277.75 530.632 1279.46 530.468 1281.4Z" fill="white" fill-opacity="0.8" shape-rendering="crispEdges"/>
<path d="M1005.41 1497.02C1005.31 1498.16 1004.31 1499 1003.18 1498.9C1002.04 1498.81 1001.2 1497.81 1001.29 1496.67C1001.39 1495.53 1002.39 1494.69 1003.52 1494.79C1004.66 1494.88 1005.51 1495.88 1005.41 1497.02Z" fill="white" fill-opacity="0.8" shape-rendering="crispEdges"/>
<path d="M84.4576 1066.15C84.4054 1066.77 83.862 1067.23 83.244 1067.17C82.6259 1067.12 82.1672 1066.58 82.2194 1065.96C82.2716 1065.34 82.815 1064.88 83.433 1064.94C84.0511 1064.99 84.5098 1065.53 84.4576 1066.15Z" fill="white" fill-opacity="0.8" shape-rendering="crispEdges"/>
<path d="M660.625 757.957C661.709 759.127 661.639 760.954 660.47 762.038C659.3 763.122 657.472 763.052 656.388 761.882C655.304 760.713 655.374 758.886 656.544 757.802C657.714 756.718 659.541 756.787 660.625 757.957Z" fill="white" fill-opacity="0.8" shape-rendering="crispEdges"/>
<path d="M1526.11 425.577C1527.19 426.747 1527.12 428.574 1525.95 429.658C1524.78 430.742 1522.96 430.673 1521.87 429.503C1520.79 428.333 1520.86 426.506 1522.03 425.422C1523.2 424.338 1525.02 424.408 1526.11 425.577Z" fill="white" fill-opacity="0.8" shape-rendering="crispEdges"/>
<path d="M1525.56 424.989C1526.95 426.484 1526.86 428.818 1525.37 430.203L1524.89 430.64C1523.4 432.025 1521.06 431.936 1519.68 430.441C1518.29 428.946 1518.38 426.612 1519.88 425.227L1520.35 424.791C1521.84 423.405 1524.18 423.494 1525.56 424.989Z" fill="white" fill-opacity="0.8" shape-rendering="crispEdges"/>
<path d="M504.362 561.734C505.577 563.044 505.499 565.091 504.188 566.306L503.776 566.688C502.465 567.903 500.418 567.825 499.203 566.514C497.989 565.203 498.067 563.157 499.377 561.942L499.79 561.56C501.101 560.345 503.148 560.423 504.362 561.734Z" fill="white" fill-opacity="0.8" shape-rendering="crispEdges"/>
<path d="M266.14 631.813C267.044 632.787 266.986 634.31 266.011 635.213C265.036 636.117 263.513 636.059 262.61 635.084C261.706 634.109 261.764 632.587 262.739 631.683C263.714 630.78 265.237 630.838 266.14 631.813Z" fill="white" fill-opacity="0.8" shape-rendering="crispEdges"/>
<path d="M931.81 808.177C933.045 809.509 932.966 811.59 931.633 812.824C930.301 814.059 928.22 813.98 926.985 812.648C925.751 811.315 925.83 809.234 927.162 808C928.494 806.765 930.575 806.844 931.81 808.177Z" fill="white" fill-opacity="0.8" shape-rendering="crispEdges"/>
<path d="M1084.33 850.022C1086.2 852.037 1086.08 855.183 1084.07 857.05C1082.05 858.917 1078.91 858.798 1077.04 856.783C1075.17 854.768 1075.29 851.622 1077.31 849.755C1079.32 847.888 1082.47 848.008 1084.33 850.022Z" fill="white" fill-opacity="0.8" shape-rendering="crispEdges"/>
<path d="M1408.63 771.741C1411.36 774.683 1411.18 779.277 1408.24 782.003C1405.3 784.729 1400.71 784.554 1397.98 781.613C1395.25 778.671 1395.43 774.077 1398.37 771.351C1401.31 768.625 1405.91 768.8 1408.63 771.741Z" fill="white" fill-opacity="0.8" shape-rendering="crispEdges"/>
<path d="M606.726 676.67C608.051 678.099 607.966 680.332 606.536 681.657C605.106 682.982 602.873 682.897 601.548 681.467C600.223 680.038 600.308 677.805 601.738 676.48C603.168 675.155 605.401 675.24 606.726 676.67Z" fill="white" fill-opacity="0.8" shape-rendering="crispEdges"/>
<path d="M700.021 568.458C701.376 569.921 701.29 572.204 699.827 573.559L699.121 574.214C697.659 575.569 695.375 575.482 694.02 574.02C692.665 572.557 692.751 570.274 694.214 568.919L694.92 568.264C696.382 566.909 698.666 566.996 700.021 568.458Z" fill="white" fill-opacity="0.8" shape-rendering="crispEdges"/>
<path d="M1313.86 471.992C1315.18 473.422 1315.1 475.655 1313.67 476.98C1312.24 478.304 1310.01 478.219 1308.68 476.79C1307.36 475.36 1307.44 473.127 1308.87 471.802C1310.3 470.477 1312.53 470.562 1313.86 471.992Z" fill="white" fill-opacity="0.8" shape-rendering="crispEdges"/>
<path d="M925.914 505.138C926.396 505.658 926.365 506.47 925.845 506.951C925.326 507.433 924.513 507.402 924.032 506.882C923.55 506.363 923.581 505.551 924.101 505.069C924.621 504.587 925.433 504.618 925.914 505.138Z" fill="white" fill-opacity="0.8" shape-rendering="crispEdges"/>
<path d="M1046.08 542.517C1047.95 544.531 1047.83 547.678 1045.81 549.545C1043.8 551.412 1040.65 551.292 1038.79 549.278C1036.92 547.263 1037.04 544.116 1039.05 542.249C1041.07 540.383 1044.22 540.502 1046.08 542.517Z" fill="white" fill-opacity="0.8" shape-rendering="crispEdges"/>
<path d="M481.513 828.563C482.597 829.733 482.527 831.56 481.357 832.644C480.187 833.728 478.36 833.659 477.276 832.489C476.192 831.319 476.262 829.492 477.431 828.408C478.601 827.324 480.428 827.394 481.513 828.563Z" fill="white" fill-opacity="0.8" shape-rendering="crispEdges"/>
<path d="M999.16 271.917C1001.03 273.931 1000.91 277.078 998.893 278.945C996.878 280.812 993.731 280.692 991.864 278.677C989.997 276.663 990.117 273.516 992.132 271.649C994.146 269.782 997.293 269.902 999.16 271.917Z" fill="white" fill-opacity="0.8" shape-rendering="crispEdges"/>
<path d="M1101.04 30.6458C1103.84 33.6677 1103.66 38.3875 1100.64 41.1879C1097.61 43.9882 1092.89 43.8087 1090.09 40.7868C1087.29 37.7649 1087.47 33.045 1090.5 30.2447C1093.52 27.4443 1098.24 27.6239 1101.04 30.6458Z" fill="white" fill-opacity="0.8" shape-rendering="crispEdges"/>
<path d="M420.052 296.406C421.24 297.688 421.164 299.69 419.881 300.879C418.599 302.067 416.597 301.99 415.408 300.708C414.22 299.426 414.296 297.424 415.579 296.236C416.861 295.048 418.863 295.124 420.052 296.406Z" fill="white" fill-opacity="0.8" shape-rendering="crispEdges"/>
<path d="M1541.39 153.763C1542.74 155.226 1542.66 157.511 1541.19 158.867C1539.73 160.223 1537.45 160.136 1536.09 158.673C1534.73 157.21 1534.82 154.925 1536.28 153.569C1537.75 152.213 1540.03 152.3 1541.39 153.763Z" fill="white" fill-opacity="0.8" shape-rendering="crispEdges"/>
<path d="M1644.69 -199.38C1646.55 -197.365 1646.43 -194.219 1644.42 -192.352C1642.4 -190.485 1639.26 -190.605 1637.39 -192.619C1635.52 -194.634 1635.64 -197.78 1637.66 -199.647C1639.67 -201.514 1642.82 -201.394 1644.69 -199.38Z" fill="white" fill-opacity="0.8" shape-rendering="crispEdges"/>
<path d="M492.427 -16.377C492.903 -15.8631 492.873 -15.0605 492.359 -14.5843C491.845 -14.108 491.042 -14.1386 490.566 -14.6525L489.848 -15.4274C489.372 -15.9413 489.402 -16.7439 489.916 -17.2202C490.43 -17.6964 491.233 -17.6658 491.709 -17.1519L492.427 -16.377Z" fill="white" fill-opacity="0.8" shape-rendering="crispEdges"/>
<path d="M354.154 228.306C356.021 230.32 355.901 233.467 353.886 235.334C351.871 237.201 348.724 237.081 346.857 235.066C344.99 233.052 345.11 229.905 347.125 228.038C349.14 226.171 352.286 226.291 354.154 228.306Z" fill="white" fill-opacity="0.8" shape-rendering="crispEdges"/>
<path d="M1665.92 794.047C1667.79 796.062 1667.67 799.208 1665.65 801.075C1663.64 802.942 1660.49 802.822 1658.62 800.808C1656.76 798.793 1656.88 795.647 1658.89 793.78C1660.91 791.913 1664.05 792.033 1665.92 794.047Z" fill="white" fill-opacity="0.8" shape-rendering="crispEdges"/>
<path d="M1391.83 -104.845C1392.95 -103.643 1392.88 -101.765 1391.68 -100.651C1390.47 -99.5365 1388.6 -99.608 1387.48 -100.81C1386.37 -102.012 1386.44 -103.89 1387.64 -105.004C1388.84 -106.119 1390.72 -106.047 1391.83 -104.845Z" fill="white" fill-opacity="0.8" shape-rendering="crispEdges"/>
<path d="M839.161 93.8464C840.245 95.0161 840.175 96.8432 839.005 97.9272C837.836 99.0112 836.008 98.9417 834.924 97.7719C833.84 96.6021 833.91 94.7751 835.08 93.6911C836.25 92.6071 838.077 92.6766 839.161 93.8464Z" fill="white" fill-opacity="0.8" shape-rendering="crispEdges"/>
<path d="M313.937 -249.366C315.463 -247.719 315.365 -245.147 313.718 -243.621C312.071 -242.095 309.499 -242.193 307.972 -243.84L306.738 -245.171C305.212 -246.818 305.31 -249.39 306.957 -250.916C308.604 -252.443 311.177 -252.345 312.703 -250.698L313.937 -249.366Z" fill="white" fill-opacity="0.8" shape-rendering="crispEdges"/>
<path d="M1192.13 663.523C1193.46 664.953 1193.37 667.186 1191.94 668.511C1190.51 669.836 1188.28 669.751 1186.95 668.321C1185.63 666.891 1185.71 664.658 1187.14 663.333C1188.57 662.008 1190.81 662.093 1192.13 663.523Z" fill="white" fill-opacity="0.8" shape-rendering="crispEdges"/>
<path d="M1671.45 457.811C1672.22 458.648 1672.18 459.956 1671.34 460.731C1670.5 461.507 1669.19 461.457 1668.42 460.62C1667.64 459.783 1667.69 458.476 1668.53 457.7C1669.37 456.925 1670.67 456.974 1671.45 457.811Z" fill="white" fill-opacity="0.8" shape-rendering="crispEdges"/>
<path d="M732.578 848.105C733 848.56 732.973 849.27 732.518 849.692C732.063 850.113 731.352 850.086 730.931 849.631C730.509 849.177 730.536 848.466 730.991 848.044C731.446 847.623 732.157 847.65 732.578 848.105Z" fill="white" fill-opacity="0.8" shape-rendering="crispEdges"/>
</g>
<defs>
<filter id="filter0_d_14_607" x="-81" y="-257" width="1758" height="1986" filterUnits="userSpaceOnUse" color-interpolation-filters="sRGB">
<feFlood flood-opacity="0" result="BackgroundImageFix"/>
<feColorMatrix in="SourceAlpha" type="matrix" values="0 0 0 0 0 0 0 0 0 0 0 0 0 0 0 0 0 0 127 0" result="hardAlpha"/>
<feOffset/>
<feGaussianBlur stdDeviation="2.5"/>
<feComposite in2="hardAlpha" operator="out"/>
<feColorMatrix type="matrix" values="0 0 0 0 1 0 0 0 0 1 0 0 0 0 1 0 0 0 0.47 0"/>
<feBlend mode="normal" in2="BackgroundImageFix" result="effect1_dropShadow_14_607"/>
<feBlend mode="normal" in="SourceGraphic" in2="effect1_dropShadow_14_607" result="shape"/>
</filter>
</defs>
</svg>
