<?xml version="1.0" encoding="UTF-8"?>
<svg version="1.1" xmlns="http://www.w3.org/2000/svg" width="132" height="132">
  <g transform="scale(0.9)">
<path d="M0 0 C13.2064313 10.46202177 23.55343272 25.72040014 25.7265625 42.70703125 C27.08570966 63.26413212 24.06593946 80.55903395 10.9765625 97.08203125 C0.2528924 109.26360212 -15.29502703 118.78283882 -31.75488281 119.87109375 C-52.98144728 120.77724378 -70.2763243 116.72875856 -86.5859375 102.37109375 C-100.12287849 88.95220747 -106.49921203 72.50315742 -106.6484375 53.70703125 C-106.47966529 34.4477108 -99.93917324 18.4929934 -86.2734375 4.70703125 C-61.62920598 -16.68502895 -26.75823675 -18.74353815 0 0 Z " fill="#D8D8D8" transform="translate(106.2734375,12.29296875)"/>
<path d="M0 0 C5.19407984 4.99709877 7.48812388 9.54874169 7.921875 16.78515625 C7.97421353 20.48723471 7.86291772 24.17660975 7.6875 27.875 C8.326875 28.019375 8.96625 28.16375 9.625 28.3125 C11.6875 28.875 11.6875 28.875 12.6875 29.875 C12.81329806 32.59052277 12.87615406 35.27924427 12.890625 37.99609375 C12.89632507 38.81118912 12.90202515 39.62628448 12.90789795 40.46607971 C12.91736127 42.19360042 12.9238872 43.92113929 12.92773438 45.64868164 C12.93744687 48.29800726 12.96845964 50.94655958 13 53.59570312 C13.00652903 55.27082871 13.01177989 56.94595986 13.015625 58.62109375 C13.0279718 59.41696396 13.0403186 60.21283417 13.05303955 61.03282166 C13.04394531 63.26733398 13.04394531 63.26733398 12.6875 66.875 C9.38645394 69.07569737 8.36811276 69.13055432 4.52929688 69.1496582 C3.47810669 69.15919022 2.4269165 69.16872223 1.34387207 69.17854309 C0.20945679 69.17763168 -0.9249585 69.17672028 -2.09375 69.17578125 C-3.25878052 69.18006638 -4.42381104 69.1843515 -5.62414551 69.18876648 C-8.08877919 69.19451272 -10.55342984 69.19500789 -13.01806641 69.19067383 C-16.79749326 69.18751255 -20.57613866 69.21097506 -24.35546875 69.23632812 C-26.74739484 69.23860087 -29.13932305 69.23930473 -31.53125 69.23828125 C-33.23287292 69.25209587 -33.23287292 69.25209587 -34.96887207 69.26618958 C-36.02006226 69.25996078 -37.07125244 69.25373199 -38.15429688 69.24731445 C-39.54304016 69.24825859 -39.54304016 69.24825859 -40.95983887 69.2492218 C-43.3125 68.875 -43.3125 68.875 -45.11161804 67.57757568 C-47.17496006 64.65222909 -46.71727989 61.22753895 -46.67578125 57.77734375 C-46.67627975 56.98727432 -46.67677826 56.1972049 -46.67729187 55.38319397 C-46.67495308 53.71466555 -46.66523594 52.04613349 -46.64868164 50.37768555 C-46.62505565 47.81852836 -46.62812592 45.26041063 -46.63476562 42.70117188 C-46.62918992 41.08072293 -46.62208071 39.46027839 -46.61328125 37.83984375 C-46.61419266 37.07212143 -46.61510406 36.30439911 -46.61604309 35.51341248 C-46.54354034 30.10604034 -46.54354034 30.10604034 -44.3125 27.875 C-43.3225 27.875 -42.3325 27.875 -41.3125 27.875 C-41.35890625 26.96878906 -41.4053125 26.06257813 -41.453125 25.12890625 C-41.73393148 15.65168749 -40.70448678 9.17477872 -35 1.5625 C-25.09237444 -8.34512556 -10.86568176 -8.70466327 0 0 Z " fill="#BFBFBF" transform="translate(82.3125,33.125)"/>
<path d="M0 0 C5.32948171 2.95186794 8.19358899 6.5832408 10.56640625 12.14453125 C10.56640625 17.42453125 10.56640625 22.70453125 10.56640625 28.14453125 C-2.30359375 28.14453125 -15.17359375 28.14453125 -28.43359375 28.14453125 C-28.43359375 9.74235734 -28.43359375 9.74235734 -24.43359375 5.14453125 C-17.68898899 -1.58553772 -9.02018227 -3.17081849 0 0 Z " fill="#D8D8D8" transform="translate(74.43359375,32.85546875)"/>
<path d="M0 0 C3.5625 0.3125 3.5625 0.3125 5.5 1.4375 C7.02404563 4.12699229 6.82607307 6.28140973 6.5625 9.3125 C6.2325 9.6425 5.9025 9.9725 5.5625 10.3125 C5.32886119 12.16141946 5.14946365 14.01738031 5 15.875 C4.91621094 16.88691406 4.83242187 17.89882812 4.74609375 18.94140625 C4.68550781 19.72386719 4.62492187 20.50632812 4.5625 21.3125 C1.5925 21.3125 -1.3775 21.3125 -4.4375 21.3125 C-4.41429687 20.63703125 -4.39109375 19.9615625 -4.3671875 19.265625 C-4.34011719 17.92757812 -4.34011719 17.92757812 -4.3125 16.5625 C-4.27769531 15.23992187 -4.27769531 15.23992187 -4.2421875 13.890625 C-4.44798745 11.17406561 -5.17598099 9.68415575 -6.4375 7.3125 C-5.97467319 2.45281845 -5.14424205 0.46765837 0 0 Z " fill="#DCDCDC" transform="translate(65.4375,70.6875)"/>
  </g>

</svg>
