<svg width="1728" height="1459" viewBox="0 0 1728 1459" fill="none" xmlns="http://www.w3.org/2000/svg">
<g filter="url(#filter0_d_14_607)">
<path d="M1212.25 235.25C1211.01 234.007 1211.01 231.993 1212.25 230.75C1213.49 229.507 1215.51 229.507 1216.75 230.75C1217.99 231.993 1217.99 234.007 1216.75 235.25C1215.51 236.493 1213.49 236.493 1212.25 235.25Z" fill="white" fill-opacity="0.8" shape-rendering="crispEdges"/>
<path d="M273.25 637.5C272.007 636.258 272.007 634.243 273.25 633C274.492 631.758 276.507 631.758 277.75 633C278.992 634.243 278.992 636.258 277.75 637.5C276.507 638.743 274.492 638.743 273.25 637.5Z" fill="white" fill-opacity="0.8" shape-rendering="crispEdges"/>
<path d="M273.875 638.125C272.287 636.537 272.287 633.963 273.875 632.375L274.375 631.875C275.963 630.287 278.537 630.287 280.125 631.875C281.713 633.463 281.713 636.037 280.125 637.625L279.625 638.125C278.037 639.713 275.463 639.713 273.875 638.125Z" fill="white" fill-opacity="0.8" shape-rendering="crispEdges"/>
<path d="M1392.52 444.771C1391.13 443.379 1391.13 441.121 1392.52 439.729L1392.96 439.291C1394.35 437.899 1396.61 437.899 1398 439.291C1399.39 440.683 1399.39 442.94 1398 444.333L1397.56 444.771C1396.17 446.163 1393.91 446.163 1392.52 444.771Z" fill="white" fill-opacity="0.8" shape-rendering="crispEdges"/>
<path d="M1651.88 357.625C1650.84 356.59 1650.84 354.911 1651.88 353.875C1652.91 352.84 1654.59 352.84 1655.62 353.875C1656.66 354.911 1656.66 356.59 1655.62 357.625C1654.59 358.661 1652.91 358.661 1651.88 357.625Z" fill="white" fill-opacity="0.8" shape-rendering="crispEdges"/>
<path d="M911.562 191.313C910.147 189.897 910.147 187.603 911.562 186.188C912.978 184.772 915.272 184.772 916.688 186.188C918.103 187.603 918.103 189.897 916.688 191.313C915.272 192.728 912.978 192.728 911.562 191.313Z" fill="white" fill-opacity="0.8" shape-rendering="crispEdges"/>
<path d="M741.875 151.625C739.735 149.485 739.735 146.015 741.875 143.875C744.015 141.735 747.485 141.735 749.625 143.875C751.765 146.015 751.765 149.485 749.625 151.625C747.485 153.765 744.015 153.765 741.875 151.625Z" fill="white" fill-opacity="0.8" shape-rendering="crispEdges"/>
<path d="M388.092 251.408C384.967 248.283 384.967 243.217 388.092 240.092C391.217 236.967 396.283 236.967 399.408 240.092C402.533 243.217 402.533 248.283 399.408 251.408C396.283 254.533 391.217 254.533 388.092 251.408Z" fill="white" fill-opacity="0.8" shape-rendering="crispEdges"/>
<path d="M1275 322.5C1273.48 320.981 1273.48 318.519 1275 317C1276.52 315.481 1278.98 315.481 1280.5 317C1282.02 318.519 1282.02 320.981 1280.5 322.5C1278.98 324.019 1276.52 324.019 1275 322.5Z" fill="white" fill-opacity="0.8" shape-rendering="crispEdges"/>
<path d="M1176.81 445.563C1175.26 444.009 1175.26 441.491 1176.81 439.938L1177.56 439.188C1179.12 437.634 1181.63 437.634 1183.19 439.188C1184.74 440.741 1184.74 443.259 1183.19 444.813L1182.44 445.563C1180.88 447.116 1178.37 447.116 1176.81 445.563Z" fill="white" fill-opacity="0.8" shape-rendering="crispEdges"/>
<path d="M505 577.5C503.481 575.981 503.481 573.519 505 572C506.519 570.481 508.981 570.481 510.5 572C512.019 573.519 512.019 575.981 510.5 577.5C508.981 579.019 506.519 579.019 505 577.5Z" fill="white" fill-opacity="0.8" shape-rendering="crispEdges"/>
<path d="M930.75 524.75C930.198 524.198 930.198 523.303 930.75 522.75C931.302 522.198 932.198 522.198 932.75 522.75C933.302 523.303 933.302 524.198 932.75 524.75C932.198 525.303 931.302 525.303 930.75 524.75Z" fill="white" fill-opacity="0.8" shape-rendering="crispEdges"/>
<path d="M796.875 488.625C794.735 486.485 794.735 483.015 796.875 480.875C799.015 478.735 802.485 478.735 804.625 480.875C806.765 483.015 806.765 486.485 804.625 488.625C802.485 490.765 799.015 490.765 796.875 488.625Z" fill="white" fill-opacity="0.8" shape-rendering="crispEdges"/>
<path d="M1406.5 150C1405.26 148.757 1405.26 146.743 1406.5 145.5C1407.74 144.257 1409.76 144.257 1411 145.5C1412.24 146.743 1412.24 148.757 1411 150C1409.76 151.243 1407.74 151.243 1406.5 150Z" fill="white" fill-opacity="0.8" shape-rendering="crispEdges"/>
<path d="M859.875 784.625C857.735 782.485 857.735 779.015 859.875 776.875C862.015 774.735 865.485 774.735 867.625 776.875C869.765 779.015 869.765 782.485 867.625 784.625C865.485 786.765 862.015 786.765 859.875 784.625Z" fill="white" fill-opacity="0.8" shape-rendering="crispEdges"/>
<path d="M757.813 1054.56C754.602 1051.35 754.602 1046.15 757.813 1042.94C761.023 1039.73 766.227 1039.73 769.438 1042.94C772.648 1046.15 772.648 1051.35 769.438 1054.56C766.227 1057.77 761.023 1057.77 757.813 1054.56Z" fill="white" fill-opacity="0.8" shape-rendering="crispEdges"/>
<path d="M1496.47 733.398C1495.1 732.036 1495.1 729.828 1496.47 728.466C1497.83 727.104 1500.04 727.104 1501.4 728.466C1502.76 729.828 1502.76 732.036 1501.4 733.398C1500.04 734.76 1497.83 734.76 1496.47 733.398Z" fill="white" fill-opacity="0.8" shape-rendering="crispEdges"/>
<path d="M267.814 937.443C266.26 935.888 266.26 933.368 267.814 931.814C269.368 930.26 271.888 930.26 273.443 931.814C274.997 933.368 274.997 935.888 273.443 937.443C271.888 938.997 269.368 938.997 267.814 937.443Z" fill="white" fill-opacity="0.8" shape-rendering="crispEdges"/>
<path d="M168.875 1330.63C166.735 1328.49 166.735 1325.02 168.875 1322.88C171.015 1320.74 174.485 1320.74 176.625 1322.88C178.765 1325.02 178.765 1328.49 176.625 1330.63C174.485 1332.77 171.015 1332.77 168.875 1330.63Z" fill="white" fill-opacity="0.8" shape-rendering="crispEdges"/>
<path d="M1429.88 1080.84C1429.34 1080.3 1429.34 1079.41 1429.88 1078.87C1430.43 1078.32 1431.31 1078.32 1431.86 1078.87L1432.68 1079.69C1433.23 1080.24 1433.23 1081.12 1432.68 1081.67C1432.14 1082.21 1431.25 1082.21 1430.71 1081.67L1429.88 1080.84Z" fill="white" fill-opacity="0.8" shape-rendering="crispEdges"/>
<path d="M1571.88 805.625C1569.73 803.485 1569.73 800.015 1571.88 797.875C1574.02 795.735 1577.48 795.735 1579.62 797.875C1581.77 800.015 1581.77 803.485 1579.62 805.625C1577.48 807.765 1574.02 807.765 1571.88 805.625Z" fill="white" fill-opacity="0.8" shape-rendering="crispEdges"/>
<path d="M103.875 237.625C101.735 235.485 101.735 232.015 103.875 229.875C106.015 227.735 109.485 227.735 111.625 229.875C113.765 232.015 113.765 235.485 111.625 237.625C109.485 239.765 106.015 239.765 103.875 237.625Z" fill="white" fill-opacity="0.8" shape-rendering="crispEdges"/>
<path d="M443.313 1215.94C442.035 1214.66 442.035 1212.59 443.313 1211.31C444.59 1210.04 446.66 1210.04 447.938 1211.31C449.215 1212.59 449.215 1214.66 447.938 1215.94C446.66 1217.21 444.59 1217.21 443.313 1215.94Z" fill="white" fill-opacity="0.8" shape-rendering="crispEdges"/>
<path d="M1043.5 974C1042.26 972.757 1042.26 970.743 1043.5 969.5C1044.74 968.257 1046.76 968.257 1048 969.5C1049.24 970.743 1049.24 972.757 1048 974C1046.76 975.243 1044.74 975.243 1043.5 974Z" fill="white" fill-opacity="0.8" shape-rendering="crispEdges"/>
<path d="M1636.17 1329.92C1634.42 1328.17 1634.42 1325.33 1636.17 1323.58C1637.92 1321.83 1640.75 1321.83 1642.5 1323.58L1643.92 1325C1645.67 1326.75 1645.67 1329.58 1643.92 1331.33C1642.17 1333.08 1639.33 1333.08 1637.58 1331.33L1636.17 1329.92Z" fill="white" fill-opacity="0.8" shape-rendering="crispEdges"/>
<path d="M631 361.5C629.481 359.981 629.481 357.519 631 356C632.519 354.481 634.981 354.481 636.5 356C638.019 357.519 638.019 359.981 636.5 361.5C634.981 363.019 632.519 363.019 631 361.5Z" fill="white" fill-opacity="0.8" shape-rendering="crispEdges"/>
<path d="M111.875 608.095C110.986 607.206 110.986 605.764 111.875 604.875C112.764 603.986 114.206 603.986 115.095 604.875C115.984 605.764 115.984 607.206 115.095 608.095C114.206 608.984 112.764 608.984 111.875 608.095Z" fill="white" fill-opacity="0.8" shape-rendering="crispEdges"/>
<path d="M1129.25 139C1128.77 138.517 1128.77 137.733 1129.25 137.25C1129.73 136.767 1130.52 136.767 1131 137.25C1131.48 137.733 1131.48 138.517 1131 139C1130.52 139.483 1129.73 139.483 1129.25 139Z" fill="white" fill-opacity="0.8" shape-rendering="crispEdges"/>
<path d="M100.122 954.065C99.9497 956.101 98.1597 957.613 96.1237 957.441C94.0876 957.269 92.5765 955.479 92.7484 953.443C92.9204 951.407 94.7104 949.895 96.7464 950.067C98.7825 950.239 100.294 952.029 100.122 954.065Z" fill="white" fill-opacity="0.8" shape-rendering="crispEdges"/>
<path d="M1161.79 1486.61C1161.62 1488.65 1159.83 1490.16 1157.8 1489.99C1155.76 1489.81 1154.25 1488.02 1154.42 1485.99C1154.59 1483.95 1156.38 1482.44 1158.42 1482.61C1160.45 1482.78 1161.97 1484.57 1161.79 1486.61Z" fill="white" fill-opacity="0.8" shape-rendering="crispEdges"/>
<path d="M1161.88 1485.59C1161.66 1488.19 1159.37 1490.12 1156.77 1489.9L1155.95 1489.83C1153.35 1489.61 1151.42 1487.32 1151.64 1484.72C1151.86 1482.12 1154.15 1480.19 1156.75 1480.41L1157.57 1480.48C1160.17 1480.7 1162.1 1482.98 1161.88 1485.59Z" fill="white" fill-opacity="0.8" shape-rendering="crispEdges"/>
<path d="M151.058 636.754C150.865 639.035 148.86 640.728 146.579 640.535L145.86 640.475C143.579 640.282 141.886 638.277 142.079 635.995C142.271 633.714 144.277 632.021 146.558 632.214L147.276 632.275C149.557 632.467 151.251 634.473 151.058 636.754Z" fill="white" fill-opacity="0.8" shape-rendering="crispEdges"/>
<path d="M-120.894 471.695C-121.038 473.392 -122.529 474.651 -124.226 474.508C-125.923 474.364 -127.182 472.873 -127.039 471.176C-126.895 469.479 -125.404 468.22 -123.707 468.363C-122.01 468.507 -120.751 469.998 -120.894 471.695Z" fill="white" fill-opacity="0.8" shape-rendering="crispEdges"/>
<path d="M286.615 1254.17C286.419 1256.48 284.381 1258.21 282.062 1258.01C279.743 1257.81 278.022 1255.78 278.218 1253.46C278.414 1251.14 280.452 1249.42 282.771 1249.61C285.09 1249.81 286.811 1251.85 286.615 1254.17Z" fill="white" fill-opacity="0.8" shape-rendering="crispEdges"/>
<path d="M378.628 1434.69C378.332 1438.2 375.249 1440.8 371.743 1440.5C368.236 1440.21 365.634 1437.13 365.93 1433.62C366.226 1430.11 369.309 1427.51 372.815 1427.81C376.322 1428.1 378.925 1431.18 378.628 1434.69Z" fill="white" fill-opacity="0.8" shape-rendering="crispEdges"/>
<path d="M732.634 1674.17C732.202 1679.29 727.701 1683.09 722.581 1682.65C717.46 1682.22 713.66 1677.72 714.093 1672.6C714.525 1667.48 719.027 1663.68 724.147 1664.11C729.267 1664.55 733.067 1669.05 732.634 1674.17Z" fill="white" fill-opacity="0.8" shape-rendering="crispEdges"/>
<path d="M130.573 832.874C130.363 835.362 128.175 837.209 125.686 836.999C123.198 836.789 121.351 834.601 121.561 832.113C121.771 829.624 123.959 827.777 126.448 827.987C128.936 828.198 130.783 830.385 130.573 832.874Z" fill="white" fill-opacity="0.8" shape-rendering="crispEdges"/>
<path d="M313.553 827.806C313.338 830.351 311.1 832.24 308.555 832.025L307.326 831.921C304.781 831.706 302.892 829.468 303.107 826.923C303.322 824.378 305.56 822.489 308.105 822.704L309.334 822.808C311.879 823.023 313.768 825.26 313.553 827.806Z" fill="white" fill-opacity="0.8" shape-rendering="crispEdges"/>
<path d="M934.663 1325.72C934.453 1328.2 932.265 1330.05 929.776 1329.84C927.288 1329.63 925.441 1327.44 925.651 1324.95C925.861 1322.47 928.049 1320.62 930.538 1320.83C933.026 1321.04 934.873 1323.23 934.663 1325.72Z" fill="white" fill-opacity="0.8" shape-rendering="crispEdges"/>
<path d="M568.465 987.025C568.389 987.93 567.593 988.601 566.688 988.525C565.783 988.448 565.112 987.653 565.188 986.748C565.264 985.843 566.06 985.171 566.965 985.248C567.87 985.324 568.541 986.12 568.465 987.025Z" fill="white" fill-opacity="0.8" shape-rendering="crispEdges"/>
<path d="M636.782 1133.06C636.486 1136.57 633.403 1139.17 629.897 1138.87C626.39 1138.58 623.788 1135.49 624.084 1131.99C624.38 1128.48 627.463 1125.88 630.969 1126.18C634.476 1126.47 637.079 1129.55 636.782 1133.06Z" fill="white" fill-opacity="0.8" shape-rendering="crispEdges"/>
<path d="M-121.315 845.426C-121.487 847.462 -123.277 848.973 -125.313 848.802C-127.349 848.63 -128.861 846.84 -128.689 844.803C-128.517 842.767 -126.727 841.256 -124.691 841.428C-122.654 841.6 -121.143 843.39 -121.315 845.426Z" fill="white" fill-opacity="0.8" shape-rendering="crispEdges"/>
<path d="M852.509 855.075C852.213 858.581 849.131 861.184 845.624 860.888C842.117 860.592 839.515 857.509 839.811 854.002C840.107 850.496 843.19 847.893 846.697 848.189C850.203 848.486 852.806 851.568 852.509 855.075Z" fill="white" fill-opacity="0.8" shape-rendering="crispEdges"/>
<path d="M1168.89 743.286C1168.44 748.546 1163.82 752.45 1158.56 752.005C1153.3 751.561 1149.39 746.937 1149.84 741.677C1150.28 736.417 1154.91 732.513 1160.17 732.958C1165.43 733.402 1169.33 738.026 1168.89 743.286Z" fill="white" fill-opacity="0.8" shape-rendering="crispEdges"/>
<path d="M329.524 327.92C329.336 330.151 327.374 331.808 325.142 331.619C322.911 331.431 321.255 329.469 321.443 327.237C321.632 325.006 323.594 323.35 325.825 323.538C328.057 323.727 329.713 325.688 329.524 327.92Z" fill="white" fill-opacity="0.8" shape-rendering="crispEdges"/>
<path d="M1432.35 1266.47C1432.14 1269.02 1429.9 1270.91 1427.35 1270.69C1424.81 1270.48 1422.92 1268.24 1423.13 1265.69C1423.35 1263.14 1425.58 1261.25 1428.13 1261.47C1430.68 1261.68 1432.57 1263.92 1432.35 1266.47Z" fill="white" fill-opacity="0.8" shape-rendering="crispEdges"/>
<path d="M1855.88 1059.47C1855.59 1062.97 1852.51 1065.57 1849 1065.28C1845.49 1064.98 1842.89 1061.9 1843.19 1058.39C1843.48 1054.89 1846.56 1052.28 1850.07 1052.58C1853.58 1052.88 1856.18 1055.96 1855.88 1059.47Z" fill="white" fill-opacity="0.8" shape-rendering="crispEdges"/>
<path d="M688.152 126.475C688.076 127.369 687.29 128.033 686.396 127.958C685.501 127.882 684.837 127.096 684.913 126.201L685.027 124.852C685.102 123.958 685.889 123.294 686.783 123.37C687.678 123.445 688.341 124.232 688.266 125.126L688.152 126.475Z" fill="white" fill-opacity="0.8" shape-rendering="crispEdges"/>
<path d="M337.133 206.75C336.837 210.256 333.755 212.859 330.248 212.563C326.741 212.266 324.139 209.184 324.435 205.677C324.731 202.171 327.814 199.568 331.321 199.864C334.827 200.161 337.43 203.243 337.133 206.75Z" fill="white" fill-opacity="0.8" shape-rendering="crispEdges"/>
<path d="M933.565 1937.02C933.269 1940.52 930.186 1943.13 926.679 1942.83C923.173 1942.53 920.57 1939.45 920.866 1935.94C921.163 1932.44 924.245 1929.83 927.752 1930.13C931.259 1930.43 933.861 1933.51 933.565 1937.02Z" fill="white" fill-opacity="0.8" shape-rendering="crispEdges"/>
<path d="M1548.15 901.664C1547.97 903.756 1546.13 905.31 1544.04 905.133C1541.95 904.956 1540.39 903.116 1540.57 901.024C1540.75 898.931 1542.59 897.378 1544.68 897.555C1546.77 897.731 1548.33 899.571 1548.15 901.664Z" fill="white" fill-opacity="0.8" shape-rendering="crispEdges"/>
<path d="M883.032 549.894C882.86 551.93 881.07 553.441 879.034 553.269C876.998 553.097 875.487 551.307 875.659 549.271C875.831 547.235 877.621 545.724 879.657 545.896C881.693 546.068 883.204 547.858 883.032 549.894Z" fill="white" fill-opacity="0.8" shape-rendering="crispEdges"/>
<path d="M754.717 -243.615C754.475 -240.749 751.955 -238.621 749.088 -238.863C746.222 -239.105 744.094 -241.625 744.336 -244.492L744.532 -246.809C744.774 -249.676 747.294 -251.804 750.161 -251.561C753.028 -251.319 755.155 -248.799 754.913 -245.933L754.717 -243.615Z" fill="white" fill-opacity="0.8" shape-rendering="crispEdges"/>
<path d="M648.253 1375.78C648.043 1378.27 645.855 1380.12 643.366 1379.91C640.878 1379.7 639.031 1377.51 639.241 1375.02C639.451 1372.53 641.639 1370.69 644.128 1370.9C646.616 1371.11 648.463 1373.29 648.253 1375.78Z" fill="white" fill-opacity="0.8" shape-rendering="crispEdges"/>
<path d="M1256.71 1652.04C1256.58 1653.5 1255.3 1654.58 1253.85 1654.45C1252.39 1654.33 1251.31 1653.05 1251.43 1651.59C1251.55 1650.14 1252.84 1649.05 1254.29 1649.18C1255.75 1649.3 1256.83 1650.58 1256.71 1652.04Z" fill="white" fill-opacity="0.8" shape-rendering="crispEdges"/>
<path d="M76.8625 1100C76.7956 1100.79 76.0995 1101.38 75.3077 1101.31C74.5159 1101.24 73.9283 1100.55 73.9951 1099.76C74.062 1098.96 74.7581 1098.38 75.5499 1098.44C76.3417 1098.51 76.9294 1099.21 76.8625 1100Z" fill="white" fill-opacity="0.8" shape-rendering="crispEdges"/>
<path d="M814.998 705.134C816.387 706.633 816.298 708.974 814.799 710.362C813.301 711.751 810.96 711.662 809.571 710.164C808.182 708.665 808.271 706.324 809.77 704.935C811.268 703.546 813.609 703.635 814.998 705.134Z" fill="white" fill-opacity="0.8" shape-rendering="crispEdges"/>
<path d="M1923.78 279.281C1925.17 280.78 1925.08 283.121 1923.58 284.51C1922.08 285.898 1919.74 285.809 1918.35 284.311C1916.97 282.812 1917.05 280.471 1918.55 279.082C1920.05 277.693 1922.39 277.782 1923.78 279.281Z" fill="white" fill-opacity="0.8" shape-rendering="crispEdges"/>
<path d="M1923.08 278.527C1924.86 280.442 1924.74 283.433 1922.83 285.208L1922.23 285.767C1920.31 287.542 1917.32 287.428 1915.54 285.513C1913.77 283.598 1913.88 280.607 1915.8 278.832L1916.4 278.273C1918.32 276.498 1921.31 276.612 1923.08 278.527Z" fill="white" fill-opacity="0.8" shape-rendering="crispEdges"/>
<path d="M614.808 453.728C616.364 455.407 616.265 458.03 614.585 459.586L614.057 460.076C612.378 461.632 609.755 461.532 608.199 459.853C606.643 458.174 606.743 455.551 608.422 453.995L608.95 453.505C610.63 451.949 613.252 452.049 614.808 453.728Z" fill="white" fill-opacity="0.8" shape-rendering="crispEdges"/>
<path d="M309.618 543.515C310.776 544.764 310.702 546.715 309.453 547.872C308.204 549.029 306.253 548.955 305.096 547.706C303.938 546.457 304.013 544.507 305.261 543.349C306.51 542.192 308.461 542.266 309.618 543.515Z" fill="white" fill-opacity="0.8" shape-rendering="crispEdges"/>
<path d="M1162.42 769.477C1164 771.184 1163.9 773.85 1162.19 775.432C1160.48 777.013 1157.82 776.912 1156.24 775.205C1154.65 773.498 1154.76 770.832 1156.46 769.25C1158.17 767.669 1160.84 767.77 1162.42 769.477Z" fill="white" fill-opacity="0.8" shape-rendering="crispEdges"/>
<path d="M1357.82 823.091C1360.21 825.672 1360.06 829.703 1357.48 832.095C1354.89 834.487 1350.86 834.334 1348.47 831.752C1346.08 829.171 1346.23 825.14 1348.81 822.748C1351.39 820.356 1355.43 820.509 1357.82 823.091Z" fill="white" fill-opacity="0.8" shape-rendering="crispEdges"/>
<path d="M1773.28 722.795C1776.77 726.564 1776.55 732.45 1772.78 735.943C1769.01 739.435 1763.13 739.211 1759.63 735.443C1756.14 731.674 1756.36 725.787 1760.13 722.295C1763.9 718.802 1769.79 719.026 1773.28 722.795Z" fill="white" fill-opacity="0.8" shape-rendering="crispEdges"/>
<path d="M745.948 600.987C747.645 602.818 747.536 605.679 745.704 607.377C743.873 609.074 741.012 608.966 739.314 607.134C737.617 605.302 737.726 602.441 739.557 600.744C741.389 599.046 744.25 599.155 745.948 600.987Z" fill="white" fill-opacity="0.8" shape-rendering="crispEdges"/>
<path d="M865.47 462.344C867.206 464.217 867.094 467.143 865.221 468.88L864.316 469.718C862.443 471.454 859.517 471.342 857.781 469.469C856.045 467.596 856.156 464.67 858.029 462.933L858.934 462.095C860.807 460.359 863.733 460.47 865.47 462.344Z" fill="white" fill-opacity="0.8" shape-rendering="crispEdges"/>
<path d="M1651.86 338.749C1653.56 340.58 1653.45 343.441 1651.62 345.139C1649.79 346.836 1646.93 346.728 1645.23 344.896C1643.53 343.064 1643.64 340.203 1645.47 338.505C1647.31 336.808 1650.17 336.917 1651.86 338.749Z" fill="white" fill-opacity="0.8" shape-rendering="crispEdges"/>
<path d="M1154.86 381.216C1155.48 381.882 1155.44 382.922 1154.78 383.54C1154.11 384.157 1153.07 384.117 1152.45 383.451C1151.83 382.785 1151.87 381.745 1152.54 381.128C1153.21 380.51 1154.25 380.55 1154.86 381.216Z" fill="white" fill-opacity="0.8" shape-rendering="crispEdges"/>
<path d="M1308.81 429.107C1311.21 431.688 1311.05 435.72 1308.47 438.112C1305.89 440.503 1301.86 440.35 1299.47 437.769C1297.07 435.188 1297.23 431.156 1299.81 428.764C1302.39 426.372 1306.42 426.526 1308.81 429.107Z" fill="white" fill-opacity="0.8" shape-rendering="crispEdges"/>
<path d="M585.535 795.597C586.924 797.096 586.835 799.436 585.336 800.825C583.837 802.214 581.497 802.125 580.108 800.626C578.719 799.128 578.808 796.787 580.307 795.398C581.805 794.009 584.146 794.098 585.535 795.597Z" fill="white" fill-opacity="0.8" shape-rendering="crispEdges"/>
<path d="M1248.7 82.4072C1251.09 84.9883 1250.94 89.0198 1248.36 91.4117C1245.78 93.8037 1241.75 93.6502 1239.35 91.0691C1236.96 88.4879 1237.11 84.4565 1239.7 82.0646C1242.28 79.6727 1246.31 79.826 1248.7 82.4072Z" fill="white" fill-opacity="0.8" shape-rendering="crispEdges"/>
<path d="M1379.22 -226.715C1382.81 -222.843 1382.58 -216.796 1378.7 -213.208C1374.83 -209.62 1368.78 -209.85 1365.2 -213.722C1361.61 -217.594 1361.84 -223.641 1365.71 -227.229C1369.58 -230.817 1375.63 -230.587 1379.22 -226.715Z" fill="white" fill-opacity="0.8" shape-rendering="crispEdges"/>
<path d="M506.797 113.784C508.319 115.426 508.221 117.992 506.578 119.514C504.936 121.036 502.37 120.939 500.848 119.296C499.326 117.653 499.423 115.088 501.066 113.565C502.709 112.043 505.274 112.141 506.797 113.784Z" fill="white" fill-opacity="0.8" shape-rendering="crispEdges"/>
<path d="M1943.36 -68.9742C1945.09 -67.0996 1944.98 -64.1717 1943.11 -62.4346C1941.23 -60.6974 1938.31 -60.8088 1936.57 -62.6834C1934.83 -64.558 1934.94 -67.4859 1936.82 -69.2231C1938.69 -70.9603 1941.62 -70.8488 1943.36 -68.9742Z" fill="white" fill-opacity="0.8" shape-rendering="crispEdges"/>
<path d="M2075.69 -521.429C2078.09 -518.848 2077.93 -514.817 2075.35 -512.425C2072.77 -510.033 2068.74 -510.186 2066.35 -512.767C2063.95 -515.349 2064.11 -519.38 2066.69 -521.772C2069.27 -524.164 2073.3 -524.011 2075.69 -521.429Z" fill="white" fill-opacity="0.8" shape-rendering="crispEdges"/>
<path d="M599.518 -286.962C600.128 -286.303 600.089 -285.275 599.43 -284.665C598.772 -284.055 597.744 -284.094 597.133 -284.752L596.213 -285.745C595.603 -286.403 595.642 -287.432 596.301 -288.042C596.959 -288.652 597.988 -288.613 598.598 -287.955L599.518 -286.962Z" fill="white" fill-opacity="0.8" shape-rendering="crispEdges"/>
<path d="M422.374 26.5317C424.766 29.1128 424.612 33.1443 422.031 35.5363C419.45 37.9282 415.418 37.7747 413.026 35.1936C410.635 32.6125 410.788 28.581 413.369 26.1891C415.95 23.7972 419.982 23.9505 422.374 26.5317Z" fill="white" fill-opacity="0.8" shape-rendering="crispEdges"/>
<path d="M2102.9 751.374C2105.29 753.955 2105.14 757.986 2102.55 760.378C2099.97 762.77 2095.94 762.617 2093.55 760.036C2091.16 757.455 2091.31 753.423 2093.89 751.031C2096.47 748.639 2100.5 748.793 2102.9 751.374Z" fill="white" fill-opacity="0.8" shape-rendering="crispEdges"/>
<path d="M1751.76 -400.309C1753.19 -398.768 1753.1 -396.363 1751.56 -394.935C1750.02 -393.508 1747.61 -393.599 1746.18 -395.14C1744.76 -396.68 1744.85 -399.086 1746.39 -400.513C1747.93 -401.941 1750.33 -401.849 1751.76 -400.309Z" fill="white" fill-opacity="0.8" shape-rendering="crispEdges"/>
<path d="M1043.72 -145.741C1045.11 -144.242 1045.02 -141.901 1043.52 -140.512C1042.03 -139.123 1039.68 -139.213 1038.3 -140.711C1036.91 -142.21 1037 -144.551 1038.49 -145.94C1039.99 -147.329 1042.33 -147.239 1043.72 -145.741Z" fill="white" fill-opacity="0.8" shape-rendering="crispEdges"/>
<path d="M370.852 -585.473C372.807 -583.363 372.682 -580.068 370.571 -578.112C368.461 -576.157 365.166 -576.282 363.21 -578.392L361.629 -580.098C359.674 -582.208 359.799 -585.504 361.909 -587.459C364.02 -589.415 367.315 -589.289 369.271 -587.179L370.852 -585.473Z" fill="white" fill-opacity="0.8" shape-rendering="crispEdges"/>
<path d="M1495.92 584.143C1497.62 585.975 1497.51 588.836 1495.68 590.533C1493.84 592.231 1490.98 592.122 1489.29 590.29C1487.59 588.459 1487.7 585.598 1489.53 583.9C1491.36 582.203 1494.22 582.311 1495.92 584.143Z" fill="white" fill-opacity="0.8" shape-rendering="crispEdges"/>
<path d="M2109.98 320.58C2110.97 321.653 2110.91 323.328 2109.84 324.321C2108.76 325.315 2107.09 325.252 2106.1 324.179C2105.1 323.107 2105.17 321.432 2106.24 320.438C2107.31 319.444 2108.99 319.508 2109.98 320.58Z" fill="white" fill-opacity="0.8" shape-rendering="crispEdges"/>
<path d="M907.179 820.634C907.719 821.217 907.684 822.127 907.101 822.667C906.519 823.207 905.608 823.173 905.068 822.59C904.528 822.007 904.563 821.097 905.146 820.557C905.728 820.016 906.639 820.051 907.179 820.634Z" fill="white" fill-opacity="0.8" shape-rendering="crispEdges"/>
</g>
<defs>
<filter id="filter0_d_14_607" x="-133.702" y="-593.848" width="2249.39" height="2541.7" filterUnits="userSpaceOnUse" color-interpolation-filters="sRGB">
<feFlood flood-opacity="0" result="BackgroundImageFix"/>
<feColorMatrix in="SourceAlpha" type="matrix" values="0 0 0 0 0 0 0 0 0 0 0 0 0 0 0 0 0 0 127 0" result="hardAlpha"/>
<feOffset/>
<feGaussianBlur stdDeviation="2.5"/>
<feComposite in2="hardAlpha" operator="out"/>
<feColorMatrix type="matrix" values="0 0 0 0 1 0 0 0 0 1 0 0 0 0 1 0 0 0 0.47 0"/>
<feBlend mode="normal" in2="BackgroundImageFix" result="effect1_dropShadow_14_607"/>
<feBlend mode="normal" in="SourceGraphic" in2="effect1_dropShadow_14_607" result="shape"/>
</filter>
</defs>
</svg>
